<svg width="108" height="32" viewBox="0 0 108 32" fill="none" xmlns="http://www.w3.org/2000/svg">
<path d="M107.302 27.5767C107.302 29.2379 105.928 30.5835 104.229 30.5835H3.67624C1.97804 30.5835 0.599609 29.2379 0.599609 27.5767V3.59903C0.599609 1.93866 1.97804 0.588379 3.67624 0.588379H104.228C105.928 0.588379 107.301 1.93866 107.301 3.59903L107.302 27.5767Z" fill="black"/>
<path d="M103.904 0.624436C105.755 0.624436 107.26 2.09241 107.26 3.89645V27.275C107.26 29.079 105.755 30.547 103.904 30.547H3.99633C2.14603 30.547 0.640411 29.079 0.640411 27.275V3.89645C0.640411 2.09241 2.14603 0.624436 3.99633 0.624436H103.904ZM103.904 3.57188e-05H3.99633C1.79935 3.57188e-05 0 1.7544 0 3.89645V27.275C0 29.417 1.79935 31.1714 3.99633 31.1714H103.904C106.101 31.1714 107.901 29.417 107.901 27.275V3.89645C107.901 1.7544 106.101 3.57188e-05 103.904 3.57188e-05Z" fill="#A6A6A6"/>
<path d="M24.0808 15.4173C24.0576 12.9056 26.19 11.6837 26.2875 11.6268C25.0798 9.91007 23.208 9.67551 22.5502 9.6568C20.978 9.49549 19.453 10.574 18.6521 10.574C17.8353 10.574 16.602 9.67239 15.2728 9.69888C13.5624 9.7246 11.9623 10.6901 11.0847 12.1895C9.27356 15.2466 10.6243 19.7392 12.3595 22.2103C13.2275 23.4205 14.2418 24.7718 15.5694 24.7243C16.8682 24.672 17.3533 23.9169 18.9207 23.9169C20.4737 23.9169 20.9292 24.7243 22.2832 24.6939C23.6771 24.672 24.5547 23.4782 25.3923 22.257C26.3954 20.8699 26.7983 19.5038 26.8142 19.4337C26.7815 19.4228 24.1071 18.4276 24.0808 15.4173Z" fill="white"/>
<path d="M21.5231 8.03122C22.2217 7.17946 22.6996 6.02067 22.5669 4.84473C21.5559 4.88837 20.2914 5.5266 19.5633 6.35965C18.9191 7.09374 18.3436 8.29695 18.4923 9.42847C19.628 9.51108 20.7942 8.86973 21.5231 8.03122Z" fill="white"/>
<path d="M42.8762 24.5504H41.0611L40.0668 21.5042H36.6108L35.6637 24.5504H33.8965L37.3205 14.1797H39.4354L42.8762 24.5504ZM39.7671 20.2262L38.8679 17.5181C38.7728 17.2415 38.5946 16.59 38.3316 15.5645H38.2996C38.1949 16.0055 38.0263 16.657 37.7945 17.5181L36.9113 20.2262H39.7671Z" fill="white"/>
<path d="M51.6809 20.7195C51.6809 21.9913 51.3285 22.9966 50.6235 23.7346C49.9921 24.3915 49.208 24.7196 48.2721 24.7196C47.2618 24.7196 46.5361 24.3658 46.0941 23.6582H46.0621V27.5975H44.3581V19.5342C44.3581 18.7347 44.3365 17.9141 44.2949 17.0725H45.7935L45.8887 18.2578H45.9206C46.4889 17.3647 47.3513 16.9189 48.5086 16.9189C49.4134 16.9189 50.1687 17.2673 50.773 17.9647C51.3788 18.663 51.6809 19.581 51.6809 20.7195ZM49.9449 20.7803C49.9449 20.0524 49.7771 19.4524 49.4398 18.9802C49.0713 18.4876 48.5766 18.2414 47.9564 18.2414C47.5359 18.2414 47.1539 18.3785 46.8126 18.649C46.4705 18.9217 46.2467 19.2778 46.142 19.7189C46.0893 19.9246 46.0629 20.093 46.0629 20.2254V21.4723C46.0629 22.0162 46.2339 22.4752 46.576 22.8501C46.9181 23.2249 47.3625 23.4119 47.9092 23.4119C48.551 23.4119 49.0506 23.1704 49.4078 22.6888C49.7659 22.2064 49.9449 21.5705 49.9449 20.7803Z" fill="white"/>
<path d="M60.5024 20.7195C60.5024 21.9913 60.1499 22.9966 59.4442 23.7346C58.8136 24.3915 58.0295 24.7196 57.0935 24.7196C56.0833 24.7196 55.3575 24.3658 54.9163 23.6582H54.8844V27.5975H53.1803V19.5342C53.1803 18.7347 53.1587 17.9141 53.1172 17.0725H54.6158L54.7109 18.2578H54.7429C55.3104 17.3647 56.1728 16.9189 57.3309 16.9189C58.2349 16.9189 58.9902 17.2673 59.596 17.9647C60.1995 18.663 60.5024 19.581 60.5024 20.7195ZM58.7664 20.7803C58.7664 20.0524 58.5977 19.4524 58.2605 18.9802C57.892 18.4876 57.3989 18.2414 56.7778 18.2414C56.3566 18.2414 55.9754 18.3785 55.6333 18.649C55.2912 18.9217 55.0682 19.2778 54.9635 19.7189C54.9115 19.9246 54.8844 20.093 54.8844 20.2254V21.4723C54.8844 22.0162 55.0554 22.4752 55.3959 22.8501C55.738 23.2241 56.1824 23.4119 56.7307 23.4119C57.3725 23.4119 57.872 23.1704 58.2293 22.6888C58.5874 22.2064 58.7664 21.5705 58.7664 20.7803Z" fill="white"/>
<path d="M70.3663 21.6422C70.3663 22.5244 70.0522 23.2421 69.4216 23.7962C68.7286 24.4017 67.7639 24.704 66.5242 24.704C65.3797 24.704 64.4621 24.4889 63.7676 24.058L64.1624 22.6732C64.9105 23.1143 65.7314 23.3356 66.6258 23.3356C67.2676 23.3356 67.7671 23.1938 68.126 22.9117C68.4832 22.6296 68.6615 22.2508 68.6615 21.7786C68.6615 21.3578 68.5144 21.0032 68.2195 20.7156C67.9262 20.4281 67.4362 20.1608 66.752 19.9138C64.8897 19.2366 63.9594 18.2445 63.9594 16.94C63.9594 16.0875 64.2855 15.3885 64.9385 14.8445C65.5891 14.2998 66.4571 14.0278 67.5425 14.0278C68.5104 14.0278 69.3145 14.1923 69.9563 14.5203L69.5303 15.8747C68.9308 15.5568 68.2531 15.3978 67.4946 15.3978C66.8951 15.3978 66.4267 15.542 66.091 15.8288C65.8073 16.0851 65.665 16.3976 65.665 16.7678C65.665 17.1777 65.8273 17.5167 66.1534 17.7832C66.4371 18.0295 66.9527 18.296 67.7008 18.5835C68.6159 18.9428 69.2881 19.3628 69.7205 19.8444C70.1513 20.3244 70.3663 20.9253 70.3663 21.6422Z" fill="white"/>
<path d="M75.999 18.3191H74.1208V21.9498C74.1208 22.8732 74.4517 23.3346 75.115 23.3346C75.4196 23.3346 75.6721 23.3089 75.8719 23.2574L75.9191 24.5191C75.5834 24.6414 75.1414 24.703 74.5939 24.703C73.9209 24.703 73.395 24.5027 73.0154 24.103C72.6373 23.7024 72.4471 23.0307 72.4471 22.0869V18.3175H71.3281V17.0707H72.4471V15.7015L74.1208 15.209V17.0707H75.999V18.3191Z" fill="white"/>
<path d="M84.4752 20.7496C84.4752 21.8991 84.1379 22.8428 83.4649 23.5808C82.7592 24.3406 81.8224 24.7193 80.6547 24.7193C79.5293 24.7193 78.6334 24.3554 77.9652 23.6275C77.297 22.8997 76.9629 21.9809 76.9629 20.8735C76.9629 19.7147 77.3066 18.7656 77.9963 18.0276C78.6845 17.2888 79.6133 16.9194 80.781 16.9194C81.9063 16.9194 82.8119 17.2834 83.4953 18.012C84.1491 18.7188 84.4752 19.6313 84.4752 20.7496ZM82.7072 20.8034C82.7072 20.1137 82.5561 19.5222 82.25 19.029C81.8928 18.432 81.382 18.1343 80.7202 18.1343C80.0353 18.1343 79.5149 18.4328 79.1577 19.029C78.8516 19.523 78.7005 20.1238 78.7005 20.8346C78.7005 21.5242 78.8516 22.1157 79.1577 22.6082C79.5261 23.2051 80.0409 23.5028 80.705 23.5028C81.3557 23.5028 81.8664 23.1989 82.2348 22.5926C82.549 22.09 82.7072 21.4923 82.7072 20.8034Z" fill="white"/>
<path d="M90.0136 18.5336C89.845 18.5032 89.6651 18.4876 89.4765 18.4876C88.877 18.4876 88.4135 18.7082 88.0874 19.15C87.8036 19.5397 87.6614 20.0322 87.6614 20.6268V24.5505H85.9581L85.9741 19.4275C85.9741 18.5656 85.9525 17.7808 85.9102 17.0732H87.3944L87.4567 18.504H87.5039C87.6837 18.0123 87.9675 17.6164 88.3559 17.3195C88.7356 17.0522 89.1456 16.9189 89.5876 16.9189C89.745 16.9189 89.8873 16.9299 90.0136 16.9493V18.5336Z" fill="white"/>
<path d="M97.6345 20.4575C97.6345 20.7552 97.6145 21.0062 97.5721 21.2111H92.46C92.48 21.9499 92.727 22.5148 93.2018 22.9045C93.6326 23.2528 94.1897 23.4274 94.8738 23.4274C95.6307 23.4274 96.3213 23.3097 96.9423 23.0736L97.2093 24.2269C96.4835 24.5355 95.6267 24.689 94.638 24.689C93.4487 24.689 92.5152 24.3477 91.8358 23.6658C91.158 22.984 90.8184 22.0683 90.8184 20.9197C90.8184 19.792 91.1341 18.853 91.7663 18.1041C92.4281 17.3046 93.3225 16.9048 94.4478 16.9048C95.5532 16.9048 96.39 17.3046 96.9583 18.1041C97.4083 18.7392 97.6345 19.5247 97.6345 20.4575ZM96.0096 20.0266C96.0208 19.5341 95.9097 19.1086 95.6787 18.7493C95.3838 18.2872 94.9306 18.0566 94.3207 18.0566C93.7637 18.0566 93.3105 18.2818 92.9644 18.7338C92.6806 19.093 92.512 19.524 92.46 20.0258H96.0096V20.0266Z" fill="white"/>
<path d="M39.2035 7.79984C39.2035 8.71705 38.9213 9.4075 38.3578 9.87117C37.8359 10.299 37.0942 10.5133 36.1335 10.5133C35.6571 10.5133 35.2495 10.493 34.9082 10.4525V5.44094C35.3534 5.37081 35.833 5.33496 36.3509 5.33496C37.266 5.33496 37.9558 5.529 38.421 5.91709C38.9421 6.35582 39.2035 6.98315 39.2035 7.79984ZM38.3203 7.82243C38.3203 7.22784 38.1588 6.77196 37.8359 6.45401C37.513 6.13684 37.0414 5.97787 36.4204 5.97787C36.1567 5.97787 35.9321 5.99501 35.7458 6.03086V9.84078C35.8489 9.85637 36.0376 9.86338 36.3117 9.86338C36.9527 9.86338 37.4475 9.6896 37.796 9.34204C38.1444 8.99448 38.3203 8.48794 38.3203 7.82243Z" fill="white"/>
<path d="M43.8855 8.60092C43.8855 9.1659 43.7201 9.62879 43.3892 9.99194C43.0423 10.3652 42.5827 10.5515 42.0088 10.5515C41.4558 10.5515 41.0154 10.373 40.6869 10.0145C40.3592 9.65685 40.1953 9.20564 40.1953 8.6617C40.1953 8.09282 40.364 7.62603 40.7028 7.26367C41.0417 6.9013 41.4973 6.71973 42.0712 6.71973C42.6243 6.71973 43.0687 6.89818 43.4052 7.25587C43.7249 7.60343 43.8855 8.0523 43.8855 8.60092ZM43.0167 8.62741C43.0167 8.28842 42.9416 7.99775 42.7921 7.75539C42.6163 7.46238 42.3661 7.31588 42.0408 7.31588C41.7043 7.31588 41.4486 7.46238 41.2727 7.75539C41.1225 7.99775 41.0481 8.2931 41.0481 8.64222C41.0481 8.98121 41.1233 9.27188 41.2727 9.51424C41.4542 9.80725 41.7067 9.95375 42.0328 9.95375C42.3525 9.95375 42.6035 9.80491 42.7841 9.50644C42.9392 9.25941 43.0167 8.9664 43.0167 8.62741Z" fill="white"/>
<path d="M50.166 6.79492L48.9871 10.4685H48.2198L47.7315 8.87327C47.6076 8.47506 47.5069 8.07918 47.4285 7.68642H47.4133C47.3406 8.09009 47.2399 8.48519 47.1104 8.87327L46.5917 10.4685H45.8156L44.707 6.79492H45.5678L45.9938 8.5413C46.097 8.95432 46.1817 9.34786 46.2496 9.72035H46.2648C46.3271 9.41332 46.4302 9.02212 46.5757 8.54909L47.1104 6.7957H47.793L48.3053 8.51168C48.4292 8.93016 48.5299 9.33305 48.6074 9.72113H48.6306C48.6874 9.34318 48.7729 8.94029 48.8864 8.51168L49.3436 6.7957H50.166V6.79492Z" fill="white"/>
<path d="M54.5076 10.468H53.67V8.36391C53.67 7.71555 53.4174 7.39137 52.9107 7.39137C52.6621 7.39137 52.4615 7.4802 52.3057 7.65866C52.1514 7.83712 52.0731 8.04752 52.0731 8.28832V10.4672H51.2354V7.84413C51.2354 7.52151 51.2251 7.17161 51.2051 6.79288H51.9412L51.9804 7.36721H52.0035C52.1011 7.18875 52.2465 7.04147 52.4375 6.9238C52.6645 6.78664 52.9187 6.71729 53.1968 6.71729C53.5485 6.71729 53.841 6.82794 54.0736 7.05004C54.363 7.32201 54.5076 7.72802 54.5076 8.26728V10.468Z" fill="white"/>
<path d="M56.8173 10.468H55.9805V5.10889H56.8173V10.468Z" fill="white"/>
<path d="M61.7488 8.60092C61.7488 9.1659 61.5834 9.62879 61.2525 9.99194C60.9056 10.3652 60.4452 10.5515 59.8721 10.5515C59.3182 10.5515 58.8778 10.373 58.5501 10.0145C58.2224 9.65685 58.0586 9.20564 58.0586 8.6617C58.0586 8.09282 58.2272 7.62603 58.5661 7.26367C58.905 6.9013 59.3606 6.71973 59.9337 6.71973C60.4876 6.71973 60.9312 6.89818 61.2684 7.25587C61.5881 7.60343 61.7488 8.0523 61.7488 8.60092ZM60.8792 8.62741C60.8792 8.28842 60.8041 7.99775 60.6546 7.75539C60.4796 7.46238 60.2286 7.31588 59.9041 7.31588C59.5668 7.31588 59.311 7.46238 59.136 7.75539C58.9857 7.99775 58.9114 8.2931 58.9114 8.64222C58.9114 8.98121 58.9865 9.27188 59.136 9.51424C59.3174 9.80725 59.57 9.95375 59.8961 9.95375C60.2158 9.95375 60.466 9.80491 60.6466 9.50644C60.8025 9.25941 60.8792 8.9664 60.8792 8.62741Z" fill="white"/>
<path d="M65.8021 10.4681H65.05L64.9877 10.0449H64.9645C64.7071 10.3824 64.3403 10.5515 63.8639 10.5515C63.5082 10.5515 63.2205 10.44 63.0039 10.2187C62.8073 10.0177 62.709 9.7675 62.709 9.4706C62.709 9.02173 62.9008 8.67962 63.2869 8.44272C63.6721 8.20582 64.214 8.08971 64.9118 8.09516V8.02659C64.9118 7.54265 64.6512 7.30107 64.1293 7.30107C63.7576 7.30107 63.4299 7.39225 63.147 7.57304L62.9767 7.03689C63.3268 6.82571 63.7592 6.71973 64.2692 6.71973C65.2538 6.71973 65.7478 7.22626 65.7478 8.23933V9.59217C65.7478 9.95921 65.7662 10.2514 65.8021 10.4681ZM64.9325 9.20564V8.6391C64.0086 8.62352 63.5466 8.87055 63.5466 9.37942C63.5466 9.57113 63.5994 9.71451 63.7073 9.81036C63.8152 9.90622 63.9526 9.95375 64.1165 9.95375C64.3003 9.95375 64.4722 9.89687 64.6288 9.78387C64.7863 9.67009 64.883 9.52593 64.9189 9.34903C64.9277 9.30929 64.9325 9.26097 64.9325 9.20564Z" fill="white"/>
<path d="M70.5635 10.468H69.8202L69.781 9.8781H69.7578C69.5204 10.327 69.116 10.5514 68.5477 10.5514C68.0938 10.5514 67.7157 10.3776 67.416 10.0301C67.1163 9.6825 66.9668 9.2313 66.9668 8.67723C66.9668 8.08263 67.129 7.60104 67.4551 7.23321C67.7709 6.89033 68.1577 6.71889 68.6181 6.71889C69.124 6.71889 69.4781 6.88487 69.6795 7.21763H69.6955V5.10889H70.5339V9.47833C70.5339 9.83602 70.5435 10.1657 70.5635 10.468ZM69.6955 8.9188V8.30629C69.6955 8.20031 69.6875 8.11458 69.6723 8.04912C69.6251 7.85275 69.5236 7.68754 69.3694 7.55428C69.2135 7.42102 69.0257 7.354 68.8091 7.354C68.4966 7.354 68.252 7.47479 68.0722 7.71715C67.8939 7.95951 67.8036 8.26888 67.8036 8.64683C67.8036 9.00998 67.8891 9.30455 68.061 9.53132C68.2424 9.7729 68.487 9.89369 68.7931 9.89369C69.0681 9.89369 69.2879 9.79316 69.4549 9.59133C69.6164 9.40508 69.6955 9.18064 69.6955 8.9188Z" fill="white"/>
<path d="M77.7273 8.60092C77.7273 9.1659 77.5619 9.62879 77.231 9.99194C76.8841 10.3652 76.4253 10.5515 75.8506 10.5515C75.2984 10.5515 74.858 10.373 74.5287 10.0145C74.201 9.65685 74.0371 9.20564 74.0371 8.6617C74.0371 8.09282 74.2058 7.62603 74.5446 7.26367C74.8835 6.9013 75.3391 6.71973 75.9138 6.71973C76.4661 6.71973 76.9113 6.89818 77.247 7.25587C77.5667 7.60343 77.7273 8.0523 77.7273 8.60092ZM76.8593 8.62741C76.8593 8.28842 76.7842 7.99775 76.6347 7.75539C76.4581 7.46238 76.2087 7.31588 75.8826 7.31588C75.5469 7.31588 75.2912 7.46238 75.1145 7.75539C74.9643 7.99775 74.8899 8.2931 74.8899 8.64222C74.8899 8.98121 74.9651 9.27188 75.1145 9.51424C75.296 9.80725 75.5485 9.95375 75.8746 9.95375C76.1943 9.95375 76.4461 9.80491 76.6267 9.50644C76.781 9.25941 76.8593 8.9664 76.8593 8.62741Z" fill="white"/>
<path d="M82.2295 10.468H81.3927V8.36391C81.3927 7.71555 81.1401 7.39137 80.6326 7.39137C80.384 7.39137 80.1834 7.4802 80.0283 7.65866C79.8733 7.83712 79.7957 8.04752 79.7957 8.28832V10.4672H78.9573V7.84413C78.9573 7.52151 78.9477 7.17161 78.9277 6.79288H79.6631L79.7022 7.36721H79.7254C79.8237 7.18875 79.9692 7.04147 80.1594 6.9238C80.3872 6.78664 80.6406 6.71729 80.9195 6.71729C81.2704 6.71729 81.5629 6.82794 81.7955 7.05004C82.0856 7.32201 82.2295 7.72802 82.2295 8.26728V10.468Z" fill="white"/>
<path d="M87.8669 7.4065H86.9446V9.19106C86.9446 9.6446 87.1084 9.87137 87.4329 9.87137C87.5832 9.87137 87.7079 9.85891 87.8062 9.83319L87.8278 10.4527C87.6623 10.5135 87.4449 10.5439 87.1772 10.5439C86.8463 10.5439 86.5889 10.4457 86.4027 10.2493C86.2157 10.0529 86.123 9.72253 86.123 9.25886V7.4065H85.5723V6.79476H86.123V6.12146L86.9438 5.87988V6.79398H87.8662V7.4065H87.8669Z" fill="white"/>
<path d="M92.3015 10.468H91.4631V8.37954C91.4631 7.72105 91.2105 7.39141 90.7046 7.39141C90.3161 7.39141 90.0508 7.58233 89.9053 7.96418C89.8805 8.04445 89.8661 8.14264 89.8661 8.25797V10.4672H89.0293V5.10889H89.8661V7.32283H89.8821C90.1459 6.91994 90.5239 6.71889 91.0139 6.71889C91.3608 6.71889 91.6477 6.82955 91.8755 7.05164C92.1592 7.32829 92.3015 7.73975 92.3015 8.28369V10.468Z" fill="white"/>
<path d="M96.8751 8.45722C96.8751 8.60372 96.8639 8.72685 96.8439 8.82738H94.3319C94.343 9.19052 94.4629 9.46717 94.6955 9.65887C94.9081 9.83032 95.1823 9.91604 95.518 9.91604C95.8896 9.91604 96.2285 9.85837 96.5338 9.74226L96.6649 10.3096C96.3076 10.4608 95.8872 10.5363 95.4005 10.5363C94.817 10.5363 94.3574 10.3688 94.0249 10.0337C93.6908 9.69862 93.5254 9.24897 93.5254 8.68477C93.5254 8.1307 93.6796 7.66936 93.9906 7.30154C94.3151 6.90878 94.7539 6.7124 95.3078 6.7124C95.8497 6.7124 96.2613 6.90878 96.5394 7.30154C96.764 7.61325 96.8751 7.999 96.8751 8.45722ZM96.0758 8.24603C96.0822 8.00367 96.0271 7.79483 95.9136 7.61871C95.7681 7.39194 95.5467 7.27816 95.247 7.27816C94.9737 7.27816 94.7507 7.38882 94.5804 7.61092C94.4413 7.78781 94.359 7.999 94.3319 8.24603H96.0758Z" fill="white"/>
</svg>
