<svg width="108" height="32" viewBox="0 0 108 32" fill="none" xmlns="http://www.w3.org/2000/svg">
<path d="M103.762 31.1714H3.99083C1.79687 31.1714 0 29.417 0 27.275V3.89646C0 1.7544 1.79687 4.0443e-05 3.99083 4.0443e-05H103.762C105.956 4.0443e-05 107.753 1.7544 107.753 3.89646V27.275C107.753 29.417 105.956 31.1714 103.762 31.1714Z" fill="black"/>
<path d="M103.762 0.624441C105.609 0.624441 107.113 2.09242 107.113 3.89646V27.275C107.113 29.079 105.609 30.547 103.762 30.547H3.99083C2.14308 30.547 0.639531 29.079 0.639531 27.275V3.89646C0.639531 2.09242 2.14308 0.624441 3.99083 0.624441H103.762ZM103.762 4.0443e-05H3.99083C1.79687 4.0443e-05 0 1.7544 0 3.89646V27.275C0 29.417 1.79687 31.1714 3.99083 31.1714H103.762C105.956 31.1714 107.753 29.417 107.753 27.275V3.89646C107.753 1.7544 105.956 4.0443e-05 103.762 4.0443e-05Z" fill="#A6A6A6"/>
<path d="M37.8467 7.98261C37.8467 8.63332 37.6472 9.15446 37.2541 9.54313C36.8021 10.0039 36.2135 10.2357 35.4921 10.2357C34.8027 10.2357 34.2141 9.99998 33.7312 9.53534C33.2473 9.06387 33.0059 8.48525 33.0059 7.79266C33.0059 7.10008 33.2473 6.52146 33.7312 6.05389C34.2141 5.58534 34.8027 5.34961 35.4921 5.34961C35.8354 5.34961 36.1626 5.41877 36.4749 5.54735C36.7862 5.67691 37.0396 5.85225 37.2232 6.0685L36.8061 6.47957C36.4859 6.11039 36.0499 5.92823 35.4921 5.92823C34.9893 5.92823 34.5533 6.09967 34.1832 6.44548C33.817 6.79226 33.6334 7.24132 33.6334 7.79266C33.6334 8.34401 33.817 8.79696 34.1832 9.14375C34.5533 9.48566 34.9893 9.661 35.4921 9.661C36.0259 9.661 36.4749 9.48566 36.8291 9.13985C37.0625 8.91094 37.1952 8.59533 37.2302 8.19205H35.4921V7.62901H37.8108C37.8388 7.75078 37.8467 7.86864 37.8467 7.98261Z" fill="white" stroke="white" stroke-width="0.0959118" stroke-miterlimit="10"/>
<path d="M41.5251 6.03029H39.3471V7.51093H41.3105V8.07396H39.3471V9.5546H41.5251V10.1283H38.7305V5.45654H41.5251V6.03029Z" fill="white" stroke="white" stroke-width="0.0959118" stroke-miterlimit="10"/>
<path d="M44.1224 10.1283H43.5059V6.03029H42.1699V5.45654H45.4594V6.03029H44.1224V10.1283Z" fill="white" stroke="white" stroke-width="0.0959118" stroke-miterlimit="10"/>
<path d="M47.8398 10.1283V5.45654H48.4554V10.1283H47.8398Z" fill="white" stroke="white" stroke-width="0.0959118" stroke-miterlimit="10"/>
<path d="M51.183 10.1283H50.5714V6.03029H49.2305V5.45654H52.5239V6.03029H51.183V10.1283Z" fill="white" stroke="white" stroke-width="0.0959118" stroke-miterlimit="10"/>
<path d="M58.7525 9.52754C58.2806 9.99998 57.6959 10.2357 56.9985 10.2357C56.2971 10.2357 55.7125 9.99998 55.2405 9.52754C54.7696 9.05608 54.5352 8.47746 54.5352 7.79266C54.5352 7.10787 54.7696 6.52925 55.2405 6.05778C55.7125 5.58534 56.2971 5.34961 56.9985 5.34961C57.6919 5.34961 58.2766 5.58534 58.7485 6.06168C59.2234 6.53704 59.4579 7.11176 59.4579 7.79266C59.4579 8.47746 59.2234 9.05608 58.7525 9.52754ZM55.6965 9.13595C56.0517 9.48566 56.4837 9.661 56.9985 9.661C57.5093 9.661 57.9453 9.48566 58.2965 9.13595C58.6507 8.78625 58.8303 8.33719 58.8303 7.79266C58.8303 7.24814 58.6507 6.79908 58.2965 6.44937C57.9453 6.09967 57.5093 5.92433 56.9985 5.92433C56.4837 5.92433 56.0517 6.09967 55.6965 6.44937C55.3423 6.79908 55.1627 7.24814 55.1627 7.79266C55.1627 8.33719 55.3423 8.78625 55.6965 9.13595Z" fill="white" stroke="white" stroke-width="0.0959118" stroke-miterlimit="10"/>
<path d="M60.3223 10.1283V5.45654H61.0705L63.3972 9.08995H63.4241L63.3972 8.19183V5.45654H64.0128V10.1283H63.3703L60.9339 6.3157H60.9069L60.9339 7.21772V10.1283H60.3223Z" fill="white" stroke="white" stroke-width="0.0959118" stroke-miterlimit="10"/>
<path d="M54.3822 16.9515C52.5075 16.9515 50.976 18.3445 50.976 20.2664C50.976 22.1727 52.5075 23.5803 54.3822 23.5803C56.2609 23.5803 57.7923 22.1727 57.7923 20.2664C57.7923 18.3445 56.2609 16.9515 54.3822 16.9515ZM54.3822 22.275C53.3535 22.275 52.4686 21.446 52.4686 20.2664C52.4686 19.0711 53.3535 18.2568 54.3822 18.2568C55.4108 18.2568 56.2998 19.0711 56.2998 20.2664C56.2998 21.446 55.4108 22.275 54.3822 22.275ZM46.9502 16.9515C45.0716 16.9515 43.5441 18.3445 43.5441 20.2664C43.5441 22.1727 45.0716 23.5803 46.9502 23.5803C48.8279 23.5803 50.3564 22.1727 50.3564 20.2664C50.3564 18.3445 48.8279 16.9515 46.9502 16.9515ZM46.9502 22.275C45.9206 22.275 45.0327 21.446 45.0327 20.2664C45.0327 19.0711 45.9206 18.2568 46.9502 18.2568C47.9789 18.2568 48.8639 19.0711 48.8639 20.2664C48.8639 21.446 47.9789 22.275 46.9502 22.275ZM38.1066 17.9675V19.376H41.5517C41.4509 20.1631 41.1815 20.7417 40.7685 21.145C40.2656 21.6321 39.4824 22.1727 38.1066 22.1727C35.9864 22.1727 34.3262 20.5021 34.3262 18.4321C34.3262 16.3622 35.9864 14.6916 38.1066 14.6916C39.2529 14.6916 40.087 15.1289 40.7026 15.6959L41.7193 14.7032C40.8582 13.9006 39.7129 13.284 38.1066 13.284C35.1992 13.284 32.7559 15.5936 32.7559 18.4321C32.7559 21.2707 35.1992 23.5803 38.1066 23.5803C39.678 23.5803 40.8582 23.0776 41.7861 22.1347C42.7369 21.2064 43.0332 19.9011 43.0332 18.8471C43.0332 18.5198 43.0053 18.2188 42.9554 17.9675H38.1066ZM74.2695 19.0594C73.9891 18.3182 73.1241 16.9515 71.3622 16.9515C69.6162 16.9515 68.1625 18.2948 68.1625 20.2664C68.1625 22.123 69.6012 23.5803 71.5298 23.5803C73.0892 23.5803 73.9891 22.6519 74.3593 22.1113L73.2019 21.3583C72.8158 21.9097 72.29 22.275 71.5298 22.275C70.7745 22.275 70.2328 21.9369 69.8856 21.2707L74.4261 19.4364L74.2695 19.0594ZM69.6401 20.1631C69.6012 18.8851 70.6568 18.2305 71.4131 18.2305C72.0057 18.2305 72.5085 18.5198 72.6762 18.9338L69.6401 20.1631ZM65.9496 23.3786H67.4422V13.6376H65.9496V23.3786ZM63.5052 17.6899H63.4553C63.1201 17.3022 62.4806 16.9515 61.6704 16.9515C59.9703 16.9515 58.4159 18.4087 58.4159 20.2771C58.4159 22.1347 59.9703 23.5803 61.6704 23.5803C62.4806 23.5803 63.1201 23.2267 63.4553 22.8273H63.5052V23.3026C63.5052 24.57 62.8118 25.2509 61.6934 25.2509C60.7815 25.2509 60.2158 24.6079 59.9823 24.0673L58.6843 24.5963C59.0584 25.4749 60.0492 26.5562 61.6934 26.5562C63.4434 26.5562 64.92 25.5509 64.92 23.1049V17.1531H63.5052V17.6899ZM61.7981 22.275C60.7695 22.275 59.9085 21.4343 59.9085 20.2771C59.9085 19.1091 60.7695 18.2568 61.7981 18.2568C62.8118 18.2568 63.611 19.1091 63.611 20.2771C63.611 21.4343 62.8118 22.275 61.7981 22.275ZM81.2574 13.6376H77.6876V23.3786H79.1762V19.6877H81.2574C82.9106 19.6877 84.5319 18.5198 84.5319 16.6622C84.5319 14.8055 82.9067 13.6376 81.2574 13.6376ZM81.2963 18.3328H79.1762V14.9926H81.2963C82.4078 14.9926 83.0423 15.8936 83.0423 16.6622C83.0423 17.4161 82.4078 18.3328 81.2963 18.3328ZM90.4982 16.933C89.4227 16.933 88.3043 17.3966 87.8443 18.4243L89.1653 18.965C89.4496 18.4243 89.9724 18.249 90.5252 18.249C91.2974 18.249 92.0806 18.7019 92.0926 19.5017V19.604C91.8232 19.452 91.2465 19.227 90.5371 19.227C89.1144 19.227 87.6647 19.9917 87.6647 21.4187C87.6647 22.724 88.83 23.5647 90.14 23.5647C91.1417 23.5647 91.6945 23.1234 92.0417 22.6101H92.0926V23.363H93.5303V19.6264C93.5303 17.8993 92.2093 16.933 90.4982 16.933ZM90.3186 22.2711C89.8317 22.2711 89.1533 22.0353 89.1533 21.446C89.1533 20.692 89.9994 20.4027 90.7317 20.4027C91.3872 20.4027 91.6945 20.544 92.0926 20.73C91.9758 21.6321 91.1806 22.2711 90.3186 22.2711ZM98.7682 17.1463L97.0571 21.369H97.0063L95.2373 17.1463H93.632L96.2899 23.0474L94.7734 26.3311H96.3288L100.424 17.1463H98.7682ZM85.35 23.3786H86.8426V13.6376H85.35V23.3786Z" fill="white"/>
<path d="M8.32913 5.87483C8.09467 6.11446 7.95898 6.48754 7.95898 6.9707V24.2046C7.95898 24.6877 8.09467 25.0608 8.32913 25.3004L8.387 25.353L18.2783 15.6997V15.4717L8.387 5.81833L8.32913 5.87483Z" fill="url(#paint0_linear_1359_17887)"/>
<path d="M21.5708 18.9189L18.2773 15.6995V15.4716L21.5748 12.2522L21.6486 12.2941L25.5536 14.4634C26.6681 15.079 26.6681 16.0921 25.5536 16.7116L21.6486 18.8771L21.5708 18.9189Z" fill="url(#paint1_linear_1359_17887)"/>
<path d="M21.6485 18.8773L18.2773 15.5858L8.32812 25.3005C8.69827 25.6804 9.30189 25.7262 9.98831 25.3463L21.6485 18.8773Z" fill="url(#paint2_linear_1359_17887)"/>
<path d="M21.6485 12.294L9.98831 5.82492C9.30189 5.44892 8.69827 5.4947 8.32812 5.8746L18.2773 15.5854L21.6485 12.294Z" fill="url(#paint3_linear_1359_17887)"/>
<defs>
<linearGradient id="paint0_linear_1359_17887" x1="17.4001" y1="24.384" x2="4.32555" y2="10.9927" gradientUnits="userSpaceOnUse">
<stop stop-color="#00A0FF"/>
<stop offset="0.0066" stop-color="#00A1FF"/>
<stop offset="0.2601" stop-color="#00BEFF"/>
<stop offset="0.5122" stop-color="#00D2FF"/>
<stop offset="0.7604" stop-color="#00DFFF"/>
<stop offset="1" stop-color="#00E3FF"/>
</linearGradient>
<linearGradient id="paint1_linear_1359_17887" x1="27.0048" y1="15.5845" x2="7.69166" y2="15.5845" gradientUnits="userSpaceOnUse">
<stop stop-color="#FFE000"/>
<stop offset="0.4087" stop-color="#FFBD00"/>
<stop offset="0.7754" stop-color="#FFA500"/>
<stop offset="1" stop-color="#FF9C00"/>
</linearGradient>
<linearGradient id="paint2_linear_1359_17887" x1="19.8153" y1="13.7965" x2="2.08525" y2="-4.36324" gradientUnits="userSpaceOnUse">
<stop stop-color="#FF3A44"/>
<stop offset="1" stop-color="#C31162"/>
</linearGradient>
<linearGradient id="paint3_linear_1359_17887" x1="5.82372" y1="31.0338" x2="13.741" y2="22.9248" gradientUnits="userSpaceOnUse">
<stop stop-color="#32A071"/>
<stop offset="0.0685" stop-color="#2DA771"/>
<stop offset="0.4762" stop-color="#15CF74"/>
<stop offset="0.8009" stop-color="#06E775"/>
<stop offset="1" stop-color="#00F076"/>
</linearGradient>
</defs>
</svg>
