<svg xmlns="http://www.w3.org/2000/svg" viewBox="0 0 200 200" fill="none">
  <circle cx="100" cy="100" r="92" fill="#D9EEE2"/>
  <g transform="translate(46 46) scale(4.5)" stroke="#1E7A5A" stroke-width="2" fill="none" stroke-linecap="round" stroke-linejoin="round">
    <path d="m11 17 2 2a1 1 0 1 0 3-3"/>
    <path d="m14 14 2.5 2.5a1 1 0 1 0 3-3l-3.88-3.88a3 3 0 0 0-4.24 0l-.88.88a1 1 0 1 1-3-3l2.81-2.81a5.79 5.79 0 0 1 7.06-.87l.47.28a2 2 0 0 0 1.42.25H21"/>
    <path d="m21 3 1 11h-2"/>
    <path d="M3 4h8"/>
    <path d="M3 3 2 14l6.5 6.5a1 1 0 1 0 3-3"/>
  </g>
</svg>
